<?xml version="1.0" standalone="no"?><!DOCTYPE svg PUBLIC "-//W3C//DTD SVG 1.1//EN" "http://www.w3.org/Graphics/SVG/1.1/DTD/svg11.dtd"><svg t="1568193198937" class="icon" viewBox="0 0 1024 1024" version="1.1" xmlns="http://www.w3.org/2000/svg" p-id="3733" xmlns:xlink="http://www.w3.org/1999/xlink" width="64" height="64"><defs><style type="text/css"></style></defs><path d="M740.266667 736 283.733333 736c-12.8 0-23.466667 10.666667-23.466667 23.466667 0 12.8 10.666667 23.466667 23.466667 23.466667l458.666667 0c12.8 0 23.466667-10.666667 23.466667-23.466667C765.866667 746.666667 753.066667 736 740.266667 736L740.266667 736zM260.266667 426.666667 260.266667 426.666667c0 12.8 10.666667 23.466667 23.466667 23.466667l458.666667 0c12.8 0 23.466667-10.666667 23.466667-23.466667 0-12.8-10.666667-23.466667-23.466667-23.466667L283.733333 403.2C270.933333 403.2 260.266667 413.866667 260.266667 426.666667L260.266667 426.666667zM949.333333 296.533333 949.333333 296.533333 663.466667 10.666667C657.066667 4.266667 646.4 0 635.733333 0L168.533333 0C140.8 0 115.2 12.8 93.866667 32 76.8 49.066667 64 76.8 64 104.533333L64 917.333333c0 29.866667 12.8 55.466667 32 74.666667l0 0C115.2 1011.2 140.8 1024 168.533333 1024l684.8 0c27.733333 0 55.466667-10.666667 72.533333-29.866667l2.133333-2.133333c19.2-19.2 29.866667-44.8 29.866667-74.666667L957.866667 324.266667C960 313.6 955.733333 302.933333 949.333333 296.533333L949.333333 296.533333zM659.2 119.466667 659.2 119.466667l181.333333 181.333333-138.666667 0c-12.8 0-21.333333-4.266667-29.866667-12.8l-2.133333 0c-6.4-8.533333-10.666667-19.2-10.666667-29.866667L659.2 119.466667 659.2 119.466667zM881.066667 917.333333 881.066667 917.333333c0 6.4-2.133333 12.8-8.533333 19.2l0 0c-4.266667 4.266667-10.666667 8.533333-19.2 8.533333L168.533333 945.066667c-6.4 0-12.8-2.133333-19.2-8.533333l0 0c-4.266667-4.266667-8.533333-12.8-8.533333-19.2L140.8 104.533333c0-6.4 2.133333-14.933333 8.533333-19.2 4.266667-4.266667 10.666667-8.533333 19.2-8.533333l443.733333 0 0 179.2c0 23.466667 10.666667 44.8 25.6 61.866667l2.133333 2.133333c17.066667 14.933333 38.4 25.6 64 25.6l179.2 0L883.2 917.333333 881.066667 917.333333zM740.266667 569.6 740.266667 569.6 283.733333 569.6c-12.8 0-23.466667 10.666667-23.466667 23.466667 0 12.8 10.666667 23.466667 23.466667 23.466667l458.666667 0c12.8 0 23.466667-10.666667 23.466667-23.466667C765.866667 580.266667 753.066667 569.6 740.266667 569.6L740.266667 569.6z" p-id="3734" fill="#ffffff"></path></svg>