<?xml version="1.0" standalone="no"?><!DOCTYPE svg PUBLIC "-//W3C//DTD SVG 1.1//EN" "http://www.w3.org/Graphics/SVG/1.1/DTD/svg11.dtd"><svg t="1568193710405" class="icon" viewBox="0 0 1870 1024" version="1.1" xmlns="http://www.w3.org/2000/svg" p-id="6053" xmlns:xlink="http://www.w3.org/1999/xlink" width="116.875" height="64"><defs><style type="text/css"></style></defs><path d="M938.98894 896.725115c-204.551389-3.31481-327.130294-34.805503-392.597788-90.328568-64.638791 55.523064-186.388994 87.013758-390.940383 90.328568L155.450769 815.581333c236.870785-9.115727 327.130294-59.597518 327.130294-154.00054L482.581063 629.192339l128.379822 0 0 32.319396c0 94.403021 91.088211 144.953871 327.958996 154.00054L938.919881 896.725115zM355.927704 290.46021c-21.546264 82.041543-41.435123 148.268681-73.68546 212.907472L157.108174 503.367683c31.490693-72.028055 58.837874-144.125169 72.925816-212.907472L355.927704 290.46021zM230.03399 254.826005l-41.435123-136.666847 125.893715 0 41.435123 136.666847L230.03399 254.826005zM192.811438 773.317507 192.811438 597.770704c0-30.661991 24.792015-54.694362 54.694362-54.694362l596.320475 0c30.592932 0 55.454006 24.032371 55.454006 54.694362l0 175.546803L774.14621 773.317507 774.14621 621.734017c0-17.402752-14.916644-31.490693-31.490693-31.490693L350.126787 590.243323c-17.333693 0-31.490693 14.087942-31.490693 31.490693l0 151.583491L192.811438 773.317507zM371.673051 325.265714c27.347181-70.439709 50.481791-135.009442 64.638791-210.352306L562.136499 114.913407C558.821689 128.93229 556.335581 142.19153 553.020772 154.622066l338.732128 0c12.430537 0 24.032371 5.800917 31.490693 15.745347 7.458322 10.773132 9.115727 22.374966 6.62962 34.736445L893.479363 325.265714l-125.893715 0 35.634206-113.463178c0.828702-2.486107 0-4.972215-0.828702-6.62962-1.657405-2.486107-4.143512-3.31481-7.458322-3.31481L539.761532 201.858106C528.159698 244.121931 513.312112 283.830591 497.566766 325.265714L371.673051 325.265714zM769.243054 503.367683c-45.578635-37.29161-87.773402-78.726733-128.379822-123.407607C609.372538 423.812247 575.395738 465.24737 539.001888 503.367683L383.274885 503.367683c82.041543-82.870245 154.069598-170.643647 210.352306-266.704073l144.953871 0C718.692204 266.427839 699.632047 296.261128 679.743189 325.265714l64.638791 0c58.009172 62.912328 122.578905 122.578905 191.361209 178.101969L769.243054 503.367683z" p-id="6054" fill="#ffffff"></path><path d="M1036.361478 386.520637c0-16.574049-15.745347-31.490693-33.976801-31.490693L983.39358 355.029943 983.39358 307.862962l126.722417 0c33.07904 0 58.837874 24.861074 58.837874 55.523064l0 455.579175c0 17.333693 14.916644 32.250337 33.976801 32.250337l18.231454 0 0 47.23604-125.893715 0c-33.148098 0-58.837874-24.032371-58.837874-55.454006L1036.430537 386.520637zM1019.787429 260.626922l-27.347181-149.926086 139.981656 0 27.347181 149.926086L1019.787429 260.626922zM1319.639601 898.38252 1319.639601 536.446722l-96.889129 0L1222.750472 488.451039l96.889129 0 0-303.166981-91.916914 0L1227.722687 137.219315l423.19072 0c32.319396 0 57.940113 25.689776 57.940113 56.282708l0 625.394119c0 17.333693 14.916644 31.421635 33.148098 31.421635l26.518479 0 0 47.995684-133.352037 0c-31.490693 0-57.940113-24.032371-57.940113-55.454006L1577.227947 216.77475c0-17.402752-14.916644-31.490693-33.148098-31.490693l-93.574319 0 0 303.166981 96.889129 0 0 47.995684-96.889129 0 0 361.935797L1319.639601 898.38252z" p-id="6055" fill="#ffffff"></path></svg>